<svg width="263" height="56" viewBox="0 0 263 56" fill="none" xmlns="http://www.w3.org/2000/svg">
<g clip-path="url(#clip0_2194_16426)">
<path d="M50.5765 39.0779L53.8028 36.7113C55.4843 39.8823 59.286 41.9955 63.226 41.9955C68.0876 41.9955 72.0505 39.3769 72.0505 35.7235C72.0505 31.5657 66.7278 29.5671 61.9815 27.775C57.4196 26.0057 52.328 23.7777 52.328 18.0571C52.328 12.3594 57.4657 8.10986 63.9859 8.10986C69.493 8.10986 73.248 11.1192 74.6307 14.7717L71.4744 16.8858C70.2761 14.1057 67.2807 12.2218 63.9397 12.2218C59.9539 12.2218 56.5438 14.8404 56.5438 18.1488C56.5438 21.7324 60.6226 23.0422 65.4145 24.8802C70.9907 27.132 76.2663 29.7049 76.2663 35.6549C76.2663 42.0414 70.3449 46.1999 63.2031 46.1999C57.0967 46.1999 52.3509 43.0292 50.5765 39.0779Z" fill="white"/>
<path d="M95.6522 29.9562L82.5422 8.65942H87.2427L97.7487 25.2922L108.256 8.65942H112.978L99.823 29.9562V45.6927H95.6522V29.9562Z" fill="white"/>
<path d="M153.745 8.56767V46.267H153.538L128.079 18.0783V43.9334L123.885 45.7386V8.08521H124.116L149.552 36.2511V10.3754L153.745 8.56767Z" fill="white"/>
<path d="M192.729 27.2003C192.729 18.4473 186.969 12.7963 177.984 12.7963H171.855V41.5124H178.053C186.992 41.5124 192.729 35.9074 192.729 27.2003ZM196.946 27.2003C196.946 38.503 189.573 45.694 178.007 45.694H167.662V8.66063L178.007 8.6377C189.573 8.6377 196.946 15.8516 196.946 27.2003Z" fill="white"/>
<path d="M208.338 10.5004L212.531 8.66064V45.694H208.338V10.5004Z" fill="white"/>
<path d="M258.76 27.1776C258.76 19.0218 252.078 12.337 243.877 12.337C235.72 12.337 229.061 19.0218 229.061 27.1776C229.061 35.3105 235.72 41.9493 243.877 41.9493C252.078 41.9493 258.76 35.3105 258.76 27.1776ZM224.822 27.2005C224.822 16.7021 233.416 8.13257 243.899 8.13257C254.405 8.13257 263 16.7021 263 27.2005C263 37.6303 254.405 46.1768 243.877 46.1768C233.416 46.1768 224.822 37.6303 224.822 27.2005Z" fill="white"/>
<path opacity="0.4" d="M0.00750753 29.4229L30.3233 42.7078L30.3158 26.5772L0 13.2849L0.00750753 29.4229Z" fill="#35C0C8"/>
<path d="M30.3236 42.7072L0.00769043 55.9993V39.8688L30.3236 26.5767V42.7072Z" fill="#35C0C8"/>
<path d="M30.3158 16.1304L0 29.4227V13.2923L30.3158 0V16.1304Z" fill="#35C0C8"/>
<g style="mix-blend-mode:multiply">
<g style="mix-blend-mode:multiply">
<path d="M30.346 26.5864L11.948 34.6442L30.346 42.7093V26.5864Z" fill="#35C0C8"/>
</g>
<g style="mix-blend-mode:multiply">
<path d="M0.0228271 13.2864L0.0303347 29.4168L18.4209 21.3516L0.0228271 13.2864Z" fill="#35C0C8"/>
</g>
</g>
</g>
<defs>
<clipPath id="clip0_2194_16426">
<rect width="263" height="56" fill="white"/>
</clipPath>
</defs>
</svg>
